<?xml version="1.0" encoding="UTF-8" standalone="no"?><!-- Generator: Gravit.io --><svg xmlns="http://www.w3.org/2000/svg" xmlns:xlink="http://www.w3.org/1999/xlink" style="isolation:isolate" viewBox="0 0 887.772 772.831" width="887.772pt" height="772.831pt"><defs><clipPath id="_clipPath_GrJ0KS84QFpM8MX07qnNkYeEeFap9vWu"><rect width="887.772" height="772.831"/></clipPath></defs><g clip-path="url(#_clipPath_GrJ0KS84QFpM8MX07qnNkYeEeFap9vWu)"><g><ellipse vector-effect="non-scaling-stroke" cx="473.5427460452134" cy="299.0465610034941" rx="166.34057072607146" ry="166.31318034774682" fill="rgb(63,61,86)"/><path d=" M 467.258 321.059 L 436.386 360.191 L 487.839 345.14 L 467.258 321.059 L 467.258 321.059 Z " fill="rgb(255,101,132)"/><path d=" M 368.821 312.397 C 377.185 302.386 389.558 296.6 402.603 296.6 C 415.649 296.6 428.022 302.386 436.386 312.397 C 450.849 298.592 455.454 277.379 448.018 258.822 C 440.581 240.265 422.598 228.099 402.603 228.099 C 382.608 228.099 364.626 240.265 357.189 258.822 C 349.753 277.379 354.358 298.592 368.821 312.397 L 368.821 312.397 Z " fill="rgb(255,255,255)"/><path d=" M 500.915 312.397 C 509.278 302.386 521.651 296.6 534.697 296.6 C 547.743 296.6 560.116 302.386 568.48 312.397 C 582.942 298.592 587.548 277.379 580.111 258.822 C 572.675 240.265 554.692 228.099 534.697 228.099 C 514.703 228.099 496.721 240.265 489.283 258.822 C 481.846 277.379 486.453 298.592 500.915 312.397 Z " fill="rgb(255,255,255)"/><ellipse vector-effect="non-scaling-stroke" cx="370.50894054078867" cy="277.18528458222613" rx="16.82924589645563" ry="16.82647471796315" fill="rgb(63,61,86)"/><ellipse vector-effect="non-scaling-stroke" cx="502.601060954775" cy="275.7148535074713" rx="16.82924589645566" ry="16.82647471796315" fill="rgb(63,61,86)"/><ellipse vector-effect="non-scaling-stroke" cx="353.679694644333" cy="340.62485859170823" rx="19.56947655441826" ry="19.566254157356013" fill="rgb(255,101,132)"/><ellipse vector-effect="non-scaling-stroke" cx="578.7286950336593" cy="340.624858591708" rx="19.569476554418202" ry="19.566254157355957" fill="rgb(255,101,132)"/><path d=" M 467.258 321.059 L 436.386 360.191 L 487.839 345.14 L 467.258 321.059 L 467.258 321.059 Z " fill="rgb(255,101,132)"/><path d=" M 541.619 546.071 L 524.956 532.088 L 525.344 546.071 L 520.168 546.071 L 519.755 531.285 L 497.257 546.071 L 487.839 546.071 L 519.587 525.206 L 518.357 481.395 L 517.439 448.307 L 522.601 448.165 L 523.533 481.395 L 524.761 525.167 L 549.665 546.071 L 541.619 546.071 L 541.619 546.071 Z " fill="rgb(63,61,86)"/><path d=" M 463.335 546.071 L 446.672 532.088 L 447.06 546.071 L 441.898 546.071 L 441.484 531.285 L 418.986 546.071 L 409.568 546.071 L 441.303 525.206 L 440.074 481.395 L 439.156 448.307 L 444.33 448.165 L 445.262 481.395 L 446.478 525.167 L 471.382 546.071 L 463.335 546.071 L 463.335 546.071 Z " fill="rgb(63,61,86)"/><path d=" M 475.989 120.504 C 471.424 120.504 467.399 124.049 464.706 129.494 C 462.333 121.307 457.349 115.613 451.527 115.613 C 451.132 115.652 450.738 115.718 450.352 115.81 C 448.115 107.069 442.913 100.938 436.85 100.938 C 428.744 100.938 422.173 111.888 422.173 125.396 C 422.173 138.904 428.744 149.853 436.85 149.853 C 437.245 149.814 437.639 149.748 438.025 149.656 C 440.262 158.398 445.464 164.529 451.527 164.529 C 456.091 164.529 460.118 160.984 462.81 155.539 C 465.182 163.727 470.168 169.42 475.989 169.42 C 484.095 169.42 490.666 158.47 490.666 144.962 C 490.666 131.455 484.095 120.504 475.989 120.504 Z " fill="rgb(63,61,86)"/><path d=" M 317.41 362.072 L 317.41 362.072 C 304.436 362.072 291.991 356.918 282.816 347.745 C 273.642 338.572 268.487 326.13 268.487 313.156 L 268.487 288.698 C 268.487 275.725 273.642 263.283 282.816 254.11 C 291.991 244.936 304.436 239.782 317.41 239.782 L 317.41 239.782 L 317.41 362.072 Z " fill="rgb(243,156,18)"/><path d=" M 629.674 239.782 L 629.674 239.782 C 642.65 239.782 655.094 244.936 664.269 254.11 C 673.444 263.283 678.598 275.725 678.598 288.698 L 678.598 313.156 C 678.598 326.13 673.444 338.572 664.269 347.745 C 655.094 356.918 642.65 362.072 629.675 362.072 L 629.675 362.072 L 629.675 239.782 L 629.674 239.782 Z " fill="rgb(243,156,18)"/><path d=" M 655.312 292.541 L 647.549 292.541 C 647.549 194.114 567.459 114.037 469.015 114.037 C 370.57 114.037 290.48 194.114 290.48 292.541 L 282.718 292.541 C 282.718 189.834 366.29 106.276 469.015 106.276 C 571.739 106.276 655.312 189.835 655.312 292.541 Z " fill="rgb(243,156,18)"/><path d=" M 162.746 163.492 L 162.746 163.492 L 162.746 163.492 L 162.746 163.492 L 162.746 163.492 Z " fill="rgb(63,61,86)"/><path d=" M 484.581 377.819 L 437.534 361.346 L 489.032 346.457 L 484.581 377.819 L 484.581 377.819 Z " fill="rgb(255,101,132)"/></g></g></svg>