<?xml version="1.0" encoding="UTF-8" standalone="no"?><!-- Generator: Gravit.io --><svg xmlns="http://www.w3.org/2000/svg" xmlns:xlink="http://www.w3.org/1999/xlink" style="isolation:isolate" viewBox="0 0 841 469.325" width="841pt" height="469.325pt"><defs><clipPath id="_clipPath_4hbiJizQPNVcMpBRTBwHmZafwfbtt7K9"><rect width="841" height="469.325"/></clipPath></defs><g clip-path="url(#_clipPath_4hbiJizQPNVcMpBRTBwHmZafwfbtt7K9)"><g><g><path d=" M 522.708 459.672 C 510.959 459.664 501.439 450.138 501.439 438.389 C 501.439 426.64 510.959 417.114 522.708 417.106 L 838.843 417.106 C 835.604 411.16 829.376 407.458 822.606 407.453 L 194.213 407.453 C 177.142 407.472 163.314 421.318 163.316 438.389 C 163.325 455.456 177.147 469.295 194.213 469.325 L 822.605 469.325 C 829.376 469.32 835.604 465.618 838.843 459.672 L 522.708 459.672 Z " fill="rgb(204,204,204)"/><path d=" M 839.263 428.833 L 538.692 428.833 C 537.734 428.831 536.959 428.054 536.959 427.096 C 536.959 426.138 537.734 425.361 538.692 425.359 L 839.263 425.359 C 840.221 425.361 840.996 426.138 840.996 427.096 C 840.996 428.054 840.221 428.831 839.263 428.833 Z " fill="rgb(204,204,204)"/><path d=" M 839.263 440.127 L 538.692 440.127 C 537.732 440.127 536.955 439.349 536.955 438.389 C 536.955 437.43 537.732 436.652 538.692 436.652 L 839.263 436.652 C 840.222 436.652 841 437.43 841 438.389 C 841 439.349 840.222 440.127 839.263 440.127 L 839.263 440.127 Z " fill="rgb(204,204,204)"/><path d=" M 839.263 451.42 L 538.692 451.42 C 537.734 451.417 536.959 450.64 536.959 449.682 C 536.959 448.724 537.734 447.947 538.692 447.945 L 839.263 447.945 C 840.221 447.947 840.996 448.724 840.996 449.682 C 840.996 450.64 840.221 451.417 839.263 451.42 L 839.263 451.42 Z " fill="rgb(204,204,204)"/><path d=" M 441.05 399.732 C 429.301 399.724 419.781 390.197 419.781 378.449 C 419.781 366.7 429.301 357.174 441.05 357.166 L 757.185 357.166 C 753.946 351.22 747.718 347.518 740.948 347.513 L 112.556 347.513 C 95.484 347.532 81.656 361.377 81.658 378.449 C 81.667 395.516 95.489 409.355 112.556 409.385 L 740.948 409.385 C 747.718 409.38 753.946 405.678 757.185 399.732 L 441.05 399.732 Z " fill="rgb(243,156,18)"/><path d=" M 757.605 368.893 L 457.034 368.893 C 456.076 368.891 455.301 368.114 455.301 367.156 C 455.301 366.198 456.076 365.421 457.034 365.418 L 757.605 365.418 C 758.564 365.418 759.342 366.196 759.342 367.156 C 759.342 368.115 758.564 368.893 757.605 368.893 L 757.605 368.893 Z " fill="rgb(204,204,204)"/><path d=" M 757.605 380.186 L 457.034 380.186 C 456.074 380.186 455.297 379.408 455.297 378.449 C 455.297 377.489 456.074 376.711 457.034 376.711 L 757.605 376.711 C 758.225 376.711 758.799 377.043 759.109 377.58 C 759.42 378.118 759.42 378.78 759.109 379.317 C 758.799 379.855 758.225 380.186 757.605 380.186 L 757.605 380.186 Z " fill="rgb(204,204,204)"/><path d=" M 757.605 391.479 L 457.034 391.479 C 456.076 391.477 455.301 390.7 455.301 389.742 C 455.301 388.784 456.076 388.007 457.034 388.004 L 757.605 388.004 C 758.226 388.003 758.801 388.334 759.113 388.872 C 759.424 389.41 759.424 390.074 759.113 390.612 C 758.801 391.15 758.226 391.481 757.605 391.479 Z " fill="rgb(204,204,204)"/><path d=" M 359.392 337.792 C 347.643 337.784 338.123 328.257 338.123 316.508 C 338.123 304.76 347.643 295.233 359.392 295.225 L 675.527 295.225 C 672.288 289.28 666.061 285.577 659.29 285.572 L 30.897 285.572 C 13.826 285.591 -0.002 299.437 0 316.508 C 0.009 333.575 13.831 347.414 30.897 347.444 L 659.29 347.444 C 666.061 347.439 672.288 343.737 675.527 337.792 L 359.392 337.792 Z " fill="rgb(204,204,204)"/><path d=" M 675.947 306.953 L 375.376 306.953 C 374.418 306.95 373.643 306.173 373.643 305.215 C 373.643 304.257 374.418 303.48 375.376 303.478 L 675.947 303.478 C 676.906 303.478 677.684 304.256 677.684 305.215 C 677.684 306.175 676.906 306.953 675.947 306.953 Z " fill="rgb(204,204,204)"/><path d=" M 675.947 318.246 L 375.376 318.246 C 374.755 318.246 374.182 317.915 373.871 317.377 C 373.561 316.84 373.561 316.177 373.871 315.64 C 374.182 315.102 374.755 314.771 375.376 314.771 L 675.947 314.771 C 676.567 314.771 677.141 315.102 677.451 315.64 C 677.762 316.177 677.762 316.84 677.451 317.377 C 677.141 317.915 676.567 318.246 675.947 318.246 L 675.947 318.246 Z " fill="rgb(204,204,204)"/><path d=" M 675.947 329.539 L 375.376 329.539 C 374.417 329.539 373.639 328.761 373.639 327.801 C 373.639 326.842 374.417 326.064 375.376 326.064 L 675.947 326.064 C 676.567 326.064 677.141 326.395 677.451 326.933 C 677.762 327.47 677.762 328.133 677.451 328.67 C 677.141 329.208 676.567 329.539 675.947 329.539 L 675.947 329.539 Z " fill="rgb(204,204,204)"/></g><g><ellipse vector-effect="non-scaling-stroke" cx="365.24174891145753" cy="127.35850248194652" rx="107.92429670930954" ry="106.91799850853735" fill="rgb(63,61,86)"/><path d=" M 361.164 141.51 L 341.134 166.667 L 374.517 156.991 L 361.164 141.51 L 361.164 141.51 Z " fill="rgb(255,101,132)"/><path d=" M 297.297 135.941 C 302.723 129.505 310.751 125.786 319.215 125.786 C 327.679 125.786 335.707 129.505 341.134 135.941 C 350.518 127.066 353.505 113.429 348.681 101.499 C 343.856 89.57 332.188 81.748 319.215 81.748 C 306.242 81.748 294.575 89.57 289.75 101.499 C 284.925 113.429 287.913 127.066 297.297 135.941 L 297.297 135.941 Z " fill="rgb(255,255,255)"/><path d=" M 383.001 135.941 C 388.427 129.505 396.455 125.786 404.92 125.786 C 413.384 125.786 421.412 129.505 426.838 135.941 C 436.222 127.066 439.21 113.429 434.385 101.499 C 429.56 89.57 417.893 81.748 404.92 81.748 C 391.947 81.748 380.28 89.57 375.454 101.499 C 370.629 113.429 373.618 127.066 383.001 135.941 Z " fill="rgb(255,255,255)"/><ellipse vector-effect="non-scaling-stroke" cx="318.5857378204746" cy="112.31726051439489" rx="10.919071153807977" ry="10.817260514394889" fill="rgb(63,61,86)"/><ellipse vector-effect="non-scaling-stroke" cx="405.4932728548973" cy="112.35900241074421" rx="10.919071153807977" ry="10.817260514394889" fill="rgb(63,61,86)"/><ellipse vector-effect="non-scaling-stroke" cx="287.4727748878262" cy="154.08800371708094" rx="12.696974555792394" ry="12.57858654641609" fill="rgb(255,101,132)"/><ellipse vector-effect="non-scaling-stroke" cx="433.4879952645126" cy="154.08800371708094" rx="12.696974555792394" ry="12.57858654641609" fill="rgb(255,101,132)"/><path d=" M 361.164 141.51 L 341.134 166.667 L 374.517 156.991 L 361.164 141.51 L 361.164 141.51 Z " fill="rgb(255,101,132)"/><rect x="335.5" y="224.86" width="3" height="44.667" transform="matrix(1,0,0,1,0,0)" fill="rgb(63,61,86)"/><rect x="392.167" y="226.193" width="3" height="44.667" transform="matrix(1,0,0,1,0,0)" fill="rgb(63,61,86)"/><path d=" M 366.829 12.579 C 363.867 12.579 361.256 14.858 359.508 18.358 C 357.969 13.095 354.735 9.434 350.958 9.434 C 350.701 9.459 350.446 9.502 350.195 9.561 C 348.744 3.942 345.369 0 341.435 0 C 336.176 0 331.912 7.04 331.912 15.724 C 331.912 24.407 336.176 31.446 341.435 31.446 C 341.691 31.421 341.947 31.379 342.197 31.32 C 343.649 36.94 347.024 40.881 350.958 40.881 C 353.919 40.881 356.532 38.602 358.278 35.102 C 359.817 40.365 363.052 44.025 366.829 44.025 C 372.088 44.025 376.352 36.986 376.352 28.302 C 376.352 19.619 372.088 12.579 366.829 12.579 Z " fill="rgb(63,61,86)"/><path d=" M 163.592 40.214 L 163.592 40.214 L 163.592 40.214 L 163.592 40.214 L 163.592 40.214 Z " fill="rgb(63,61,86)"/><path d=" M 372.404 177.999 L 341.879 167.409 L 375.291 157.837 L 372.404 177.999 L 372.404 177.999 Z " fill="rgb(255,101,132)"/><path d=" M 286.152 42.61 L 443.598 42.61 C 446.718 42.61 449.25 45.142 449.25 48.262 L 449.25 50.208 C 449.25 53.328 446.718 55.86 443.598 55.86 L 286.152 55.86 C 283.032 55.86 280.5 53.328 280.5 50.208 L 280.5 48.262 C 280.5 45.142 283.032 42.61 286.152 42.61 Z " fill="rgb(243,156,18)"/><clipPath id="_clipPath_mxKQDOJZhWWyRTnMD6idztLp7dTOx93h"><path d=" M 286.152 42.61 L 443.598 42.61 C 446.718 42.61 449.25 45.142 449.25 48.262 L 449.25 50.208 C 449.25 53.328 446.718 55.86 443.598 55.86 L 286.152 55.86 C 283.032 55.86 280.5 53.328 280.5 50.208 L 280.5 48.262 C 280.5 45.142 283.032 42.61 286.152 42.61 Z " fill="rgb(255,255,255)"/></clipPath><g clip-path="url(#_clipPath_mxKQDOJZhWWyRTnMD6idztLp7dTOx93h)"><g><g><g><rect x="280" y="45.11" width="170.5" height="2" transform="matrix(1,0,0,1,0,0)" fill="rgb(255,255,255)"/><rect x="272.25" y="50.36" width="184.25" height="2" transform="matrix(1,0,0,1,0,0)" fill="rgb(255,255,255)"/></g></g></g></g><g><path d=" M 339.322 283.12 L 339.322 284.312 C 339.322 284.935 339.765 285.433 340.32 285.433 C 340.875 285.433 341.318 284.935 341.318 284.312 L 341.318 283.12 L 339.322 283.12 Z  M 331.067 284.312 C 331.067 284.935 331.511 285.433 332.065 285.433 C 332.62 285.433 333.063 284.935 333.063 284.312 L 333.063 283.12 L 331.083 283.12 L 331.067 284.312 Z  M 316.807 284.312 C 316.807 284.935 317.251 285.433 317.805 285.433 C 318.36 285.433 318.804 284.935 318.804 284.312 L 318.804 283.12 L 316.823 283.12 L 316.807 284.312 Z  M 308.552 284.312 C 308.552 284.935 308.996 285.433 309.55 285.433 C 310.105 285.433 310.549 284.935 310.549 284.312 L 310.549 283.12 L 308.568 283.12 L 308.568 284.312 L 308.552 284.312 Z  M 300.297 284.312 C 300.297 284.935 300.741 285.433 301.296 285.433 C 301.85 285.433 302.294 284.935 302.294 284.312 L 302.294 283.12 L 300.313 283.12 L 300.313 284.312 L 300.297 284.312 L 300.297 284.312 Z  M 292.043 284.312 C 292.043 284.935 292.486 285.433 293.041 285.433 C 293.595 285.433 294.039 284.935 294.039 284.312 L 294.039 283.12 L 292.058 283.12 L 292.058 284.312 L 292.043 284.312 L 292.043 284.312 Z  M 322.622 252.444 C 324.098 257.31 327.661 261.012 332.096 262.286 C 336.531 263.56 341.239 262.234 344.614 258.761 C 344.992 258.359 345.511 258.169 346.028 258.245 C 346.544 258.321 347.002 258.654 347.276 259.152 C 347.228 259.188 347.196 259.223 347.149 259.259 C 344.131 262.366 340.184 264.087 336.09 264.081 C 329.071 264.081 322.844 259.081 320.578 251.59 L 320.182 250.433 C 321.275 250.469 322.258 251.252 322.622 252.444 L 322.622 252.444 Z " fill="rgb(63,61,86)"/><path d=" M 347.941 279.045 C 347.011 280.219 345.68 280.892 344.281 280.896 L 289.349 280.896 C 287.939 280.896 286.624 280.273 285.642 279.134 C 284.659 277.995 284.136 276.501 284.168 274.935 L 284.168 274.828 C 284.2 273.102 284.913 271.501 286.101 270.433 C 288.446 268.316 292.486 265.077 298.697 261.216 L 299.648 263.529 C 299.756 263.8 299.955 264.01 300.203 264.114 C 300.45 264.218 300.724 264.206 300.963 264.081 C 301.454 263.832 301.676 263.173 301.454 262.604 L 300.456 260.148 C 301.169 259.721 301.898 259.294 302.658 258.867 L 303.704 261.447 C 303.812 261.718 304.012 261.929 304.259 262.032 C 304.506 262.136 304.78 262.124 305.019 261.999 C 305.51 261.75 305.732 261.092 305.51 260.522 L 304.433 257.871 C 305.162 257.479 305.89 257.07 306.651 256.661 L 307.76 259.383 C 307.868 259.654 308.068 259.864 308.315 259.968 C 308.562 260.072 308.836 260.06 309.075 259.935 C 309.566 259.686 309.788 259.027 309.566 258.458 L 308.457 255.736 C 309.249 255.326 310.073 254.917 310.913 254.49 L 312.022 257.212 C 312.13 257.483 312.33 257.694 312.577 257.797 C 312.824 257.901 313.098 257.889 313.337 257.764 C 313.828 257.515 314.05 256.857 313.828 256.287 L 312.735 253.6 C 313.48 253.245 314.24 252.889 315.017 252.515 L 316.078 255.131 C 316.186 255.401 316.386 255.612 316.633 255.715 C 316.88 255.819 317.154 255.807 317.393 255.682 C 317.885 255.433 318.106 254.775 317.885 254.205 L 316.855 251.679 C 317.33 251.465 317.805 251.252 318.297 251.038 L 318.74 252.337 C 321.275 260.682 328.263 266.305 336.121 266.305 C 340.368 266.305 344.455 264.668 347.719 261.661 L 348.813 271.554 C 348.765 271.59 348.733 271.608 348.686 271.643 L 348.638 271.679 C 346.062 273.986 342.871 275.258 339.575 275.291 L 295.37 275.558 C 294.815 275.558 294.388 276.056 294.388 276.679 C 294.388 277.284 294.831 277.782 295.37 277.782 L 339.575 277.515 C 342.966 277.497 346.309 276.287 349.066 274.081 L 349.129 274.721 C 349.304 276.305 348.86 277.871 347.941 279.045 Z " fill="rgb(243,156,18)"/></g><g><path d=" M 392.345 282.787 L 392.345 283.979 C 392.345 284.602 391.901 285.1 391.347 285.1 C 390.792 285.1 390.348 284.602 390.348 283.979 L 390.348 282.787 L 392.345 282.787 Z  M 400.6 283.979 C 400.6 284.602 400.156 285.1 399.602 285.1 C 399.047 285.1 398.603 284.602 398.603 283.979 L 398.603 282.787 L 400.584 282.787 L 400.6 283.979 Z  M 414.86 283.979 C 414.86 284.602 414.416 285.1 413.861 285.1 C 413.307 285.1 412.863 284.602 412.863 283.979 L 412.863 282.787 L 414.844 282.787 L 414.86 283.979 Z  M 423.114 283.979 C 423.114 284.602 422.671 285.1 422.116 285.1 C 421.562 285.1 421.118 284.602 421.118 283.979 L 421.118 282.787 L 423.099 282.787 L 423.099 283.979 L 423.114 283.979 Z  M 431.369 283.979 C 431.369 284.602 430.926 285.1 430.371 285.1 C 429.816 285.1 429.373 284.602 429.373 283.979 L 429.373 282.787 L 431.353 282.787 L 431.353 283.979 L 431.369 283.979 L 431.369 283.979 Z  M 439.624 283.979 C 439.624 284.602 439.18 285.1 438.626 285.1 C 438.071 285.1 437.628 284.602 437.628 283.979 L 437.628 282.787 L 439.608 282.787 L 439.608 283.979 L 439.624 283.979 L 439.624 283.979 Z  M 409.045 252.11 C 407.569 256.977 404.006 260.679 399.571 261.953 C 395.136 263.227 390.428 261.901 387.053 258.427 C 386.675 258.025 386.155 257.836 385.639 257.912 C 385.123 257.988 384.664 258.321 384.391 258.819 C 384.439 258.854 384.47 258.89 384.518 258.925 C 387.536 262.033 391.483 263.754 395.577 263.747 C 402.596 263.747 408.823 258.747 411.089 251.256 L 411.485 250.1 C 410.391 250.135 409.409 250.918 409.045 252.11 L 409.045 252.11 Z " fill="rgb(63,61,86)"/><path d=" M 383.726 278.712 C 384.656 279.885 385.987 280.558 387.386 280.562 L 442.318 280.562 C 443.728 280.562 445.043 279.94 446.025 278.801 C 447.007 277.662 447.53 276.167 447.499 274.602 L 447.499 274.495 C 447.467 272.769 446.754 271.167 445.566 270.1 C 443.221 267.982 439.18 264.744 432.969 260.883 L 432.019 263.196 C 431.911 263.466 431.711 263.677 431.464 263.781 C 431.217 263.884 430.943 263.872 430.704 263.747 C 430.213 263.498 429.991 262.84 430.213 262.271 L 431.211 259.815 C 430.498 259.388 429.769 258.961 429.008 258.534 L 427.963 261.114 C 427.855 261.385 427.655 261.595 427.408 261.699 C 427.161 261.803 426.887 261.791 426.648 261.666 C 426.156 261.417 425.935 260.758 426.156 260.189 L 427.234 257.538 C 426.505 257.146 425.776 256.737 425.016 256.328 L 423.907 259.05 C 423.799 259.32 423.599 259.531 423.352 259.635 C 423.105 259.738 422.831 259.727 422.592 259.602 C 422.1 259.352 421.879 258.694 422.1 258.125 L 423.209 255.402 C 422.417 254.993 421.593 254.584 420.754 254.157 L 419.644 256.879 C 419.537 257.15 419.337 257.36 419.09 257.464 C 418.843 257.568 418.569 257.556 418.329 257.431 C 417.838 257.182 417.616 256.523 417.838 255.954 L 418.931 253.267 C 418.187 252.911 417.426 252.555 416.65 252.182 L 415.588 254.797 C 415.481 255.068 415.281 255.278 415.034 255.382 C 414.786 255.486 414.513 255.474 414.273 255.349 C 413.782 255.1 413.56 254.441 413.782 253.872 L 414.812 251.345 C 414.337 251.132 413.861 250.918 413.37 250.705 L 412.927 252.004 C 410.391 260.349 403.404 265.972 395.545 265.972 C 391.299 265.972 387.211 264.335 383.947 261.328 L 382.854 271.221 C 382.902 271.256 382.933 271.274 382.981 271.31 L 383.028 271.345 C 385.605 273.653 388.796 274.925 392.091 274.957 L 436.297 275.224 C 436.851 275.224 437.279 275.723 437.279 276.345 C 437.279 276.95 436.835 277.449 436.297 277.449 L 392.091 277.182 C 388.701 277.164 385.358 275.954 382.601 273.747 L 382.537 274.388 C 382.363 275.972 382.807 277.538 383.726 278.712 Z " fill="rgb(243,156,18)"/></g></g></g></g></svg>