<?xml version="1.0" encoding="UTF-8" standalone="no"?><!-- Generator: Gravit.io --><svg xmlns="http://www.w3.org/2000/svg" xmlns:xlink="http://www.w3.org/1999/xlink" style="isolation:isolate" viewBox="0 0 306.773 306.773" width="306.773pt" height="306.773pt"><defs><clipPath id="_clipPath_fK68W7x1JHbrqQTMxAUsVQyEU603clju"><rect width="306.773" height="306.773"/></clipPath></defs><g clip-path="url(#_clipPath_fK68W7x1JHbrqQTMxAUsVQyEU603clju)"><clipPath id="_clipPath_2lGSutF41e7mNWFuVzLFihQX4fngaf6U"><rect x="0" y="0" width="306.773" height="306.773" transform="matrix(1,0,0,1,0,0)" fill="rgb(255,255,255)"/></clipPath><g clip-path="url(#_clipPath_2lGSutF41e7mNWFuVzLFihQX4fngaf6U)"><g><path d=" M 262.209 145.007 C 265.958 140.95 265.596 134.732 261.401 131.123 L 168.979 51.549 C 164.784 47.939 158.058 48.014 153.952 51.719 L 61.216 135.365 C 57.109 139.07 56.908 145.28 60.77 149.23 L 63.095 151.612 C 66.952 155.563 73.187 156.033 77.012 152.661 L 83.942 146.554 L 83.942 235.964 C 83.942 241.449 88.46 245.89 94.031 245.89 L 130.179 245.89 C 135.75 245.89 140.267 241.449 140.267 235.964 L 140.267 173.413 L 186.375 173.413 L 186.375 235.964 C 186.295 241.445 190.281 245.886 195.852 245.886 L 234.16 245.886 C 239.731 245.886 244.248 241.445 244.248 235.96 L 244.248 147.813 C 244.248 147.813 246.163 149.463 248.524 151.506 C 250.882 153.544 255.833 151.91 259.582 147.849 L 262.209 145.007 L 262.209 145.007 Z " fill="rgb(208, 10, 90)"/><path d=" M 246.209 129.017 C 249.958 124.96 249.596 118.742 245.401 115.132 L 152.979 35.558 C 148.784 31.949 142.059 32.024 137.952 35.729 L 45.216 119.375 C 41.11 123.08 40.908 129.29 44.77 133.24 L 47.095 135.622 C 50.952 139.572 57.187 140.043 61.012 136.671 L 67.943 130.564 L 67.943 219.973 C 67.943 225.459 72.46 229.9 78.031 229.9 L 114.179 229.9 C 119.75 229.9 124.267 225.459 124.267 219.973 L 124.267 157.423 L 170.375 157.423 L 170.375 219.973 C 170.295 225.455 174.281 229.896 179.852 229.896 L 218.161 229.896 C 223.731 229.896 228.249 225.455 228.249 219.969 L 228.249 131.823 C 228.249 131.823 230.163 133.473 232.525 135.515 C 234.882 137.554 239.833 135.919 243.582 131.859 L 246.209 129.017 L 246.209 129.017 Z " fill="rgb(244, 25, 113)"/></g></g></g></svg>