<?xml version="1.0" encoding="UTF-8" standalone="no"?>
<!-- Generator: Gravit.io --><svg xmlns="http://www.w3.org/2000/svg" xmlns:xlink="http://www.w3.org/1999/xlink"
    style="isolation:isolate" viewBox="0 0 512 512" width="512pt" height="512pt">
    <defs>
        <clipPath id="_clipPath_gy0qT63B2B918jvKL8DrxRyjaA63Nwx4">
            <rect width="512" height="512" />
        </clipPath>
    </defs>
    <g clip-path="url(#_clipPath_gy0qT63B2B918jvKL8DrxRyjaA63Nwx4)">
        <clipPath id="_clipPath_3JVFvxbhdQmrZsBRGm5Xebhk8TPqXNhd">
            <rect x="0" y="0" width="512" height="512" transform="matrix(1,0,0,1,0,0)" fill="rgb(255,255,255)" />
        </clipPath>
        <g clip-path="url(#_clipPath_3JVFvxbhdQmrZsBRGm5Xebhk8TPqXNhd)"><text transform="matrix(1,0,0,1,-362,200.377)"
                style="font-family:'Open Sans';font-weight:400;font-size:20px;font-style:normal;font-variant-ligatures:none;fill:#000000;stroke:none;">f39c12</text>
            <path
                d=" M 133 448 C 126.86 447.989 120.829 446.379 115.5 443.33 C 103.5 436.53 96.04 423.33 96.04 409 L 96.04 119 C 96.04 104.63 103.5 91.47 115.5 84.67 C 126.613 78.283 140.322 78.456 151.27 85.12 L 399.12 233.48 C 409.62 240.064 415.995 251.586 415.995 263.98 C 415.995 276.374 409.62 287.896 399.12 294.48 L 151.23 442.88 C 145.729 446.206 139.428 447.975 133 448 L 133 448 L 133 448 L 133 448 L 133 448 Z "
                fill="rgb(211,84,0)" />
            <path
                d=" M 133 416.002 C 126.86 415.991 120.829 414.381 115.5 411.332 C 103.5 404.532 96.04 391.332 96.04 377.002 L 96.04 87.002 C 96.04 72.632 103.5 59.472 115.5 52.672 C 126.613 46.285 140.322 46.458 151.27 53.122 L 399.12 201.482 C 409.62 208.066 415.995 219.588 415.995 231.982 C 415.995 244.376 409.62 255.898 399.12 262.482 L 151.23 410.882 C 145.729 414.208 139.428 415.977 133 416.002 L 133 416.002 L 133 416.002 L 133 416.002 Z "
                fill="rgb(243,156,18)" />
        </g>
    </g>
</svg>