<?xml version="1.0" encoding="UTF-8" standalone="no"?><!-- Generator: Gravit.io --><svg xmlns="http://www.w3.org/2000/svg" xmlns:xlink="http://www.w3.org/1999/xlink" style="isolation:isolate" viewBox="0 0 887.772 772.831" width="887.772pt" height="772.831pt"><defs><clipPath id="_clipPath_jJAu8PBpF2vXnRwrZazLeWJpbVhPtaFk"><rect width="887.772" height="772.831"/></clipPath></defs><g clip-path="url(#_clipPath_jJAu8PBpF2vXnRwrZazLeWJpbVhPtaFk)"><path d=" M 887.772 763.25 L 252.263 772.831 L 0 728.121 L 393.817 728.121 L 887.772 763.25 L 887.772 763.25 Z " fill="rgb(230,230,230)"/><circle vector-effect="non-scaling-stroke" cx="731.82227" cy="101.66024" r="101.66024000000004" fill="rgb(255,101,132)"/><path d=" M 179.84 733.435 C 179.84 733.435 181.327 702.276 211.812 705.898" fill="rgb(63,61,86)"/><circle vector-effect="non-scaling-stroke" cx="171.2269" cy="688.52637" r="15.257110000000011" fill="rgb(243,156,18)"/><rect x="168.744" y="714.218" width="4.307" height="30.147" transform="matrix(1,0,0,1,0,0)" fill="rgb(63,61,86)"/><path d=" M 682.287 738.757 C 682.287 738.757 683.774 707.599 714.258 711.22" fill="rgb(63,61,86)"/><circle vector-effect="non-scaling-stroke" cx="673.67331" cy="693.8489" r="15.257110000000011" fill="rgb(243,156,18)"/><rect x="671.191" y="719.541" width="4.307" height="30.147" transform="matrix(1,0,0,1,0,0)" fill="rgb(63,61,86)"/><path d=" M 755.738 744.08 C 755.738 744.08 757.225 712.921 787.709 716.543" fill="rgb(63,61,86)"/><circle vector-effect="non-scaling-stroke" cx="747.12416" cy="699.17142" r="15.257110000000011" fill="rgb(243,156,18)"/><rect x="744.642" y="724.863" width="4.307" height="30.147" transform="matrix(1,0,0,1,0,0)" fill="rgb(63,61,86)"/><path d=" M 300.129 718.532 C 300.129 718.532 301.616 687.373 332.101 690.995" fill="rgb(63,61,86)"/><circle vector-effect="non-scaling-stroke" cx="291.51598" cy="673.6233" r="15.257110000000011" fill="rgb(243,156,18)"/><rect x="289.033" y="699.315" width="4.307" height="30.147" transform="matrix(1,0,0,1,0,0)" fill="rgb(63,61,86)"/><path d=" M 73.39 723.854 C 73.39 723.854 74.877 692.696 105.361 696.317" fill="rgb(63,61,86)"/><circle vector-effect="non-scaling-stroke" cx="64.77639" cy="678.94583" r="15.257109999999997" fill="rgb(243,156,18)"/><rect x="62.294" y="704.638" width="4.307" height="30.147" transform="matrix(1,0,0,1,0,0)" fill="rgb(63,61,86)"/><circle vector-effect="non-scaling-stroke" cx="442.27688" cy="503.48191" r="166.22823000000002" fill="rgb(63,61,86)"/><path d=" M 337.626 516.826 C 345.984 506.82 358.349 501.037 371.385 501.037 C 384.422 501.037 396.787 506.82 405.145 516.826 C 419.598 503.028 424.2 481.825 416.769 463.278 C 409.337 444.73 391.367 432.571 371.385 432.571 C 351.404 432.571 333.434 444.73 326.002 463.278 C 318.571 481.825 323.173 503.028 337.626 516.826 L 337.626 516.826 Z " fill="rgb(255,255,255)"/><path d=" M 469.631 516.826 C 477.988 506.82 490.353 501.037 503.39 501.037 C 516.427 501.037 528.792 506.82 537.15 516.826 C 551.602 503.028 556.205 481.825 548.773 463.278 C 541.342 444.73 523.371 432.571 503.39 432.571 C 483.409 432.571 465.439 444.73 458.007 463.278 C 450.575 481.825 455.178 503.028 469.631 516.826 Z " fill="rgb(255,255,255)"/><circle vector-effect="non-scaling-stroke" cx="354.70738" cy="464.81392" r="16.817880000000002" fill="rgb(63,61,86)"/><circle vector-effect="non-scaling-stroke" cx="486.70738" cy="464.81392" r="16.817880000000002" fill="rgb(63,61,86)"/><circle vector-effect="non-scaling-stroke" cx="322.49478" cy="545.03897" r="19.55626000000001" fill="rgb(255,101,132)"/><circle vector-effect="non-scaling-stroke" cx="547.39179" cy="545.03897" r="19.556259999999952" fill="rgb(255,101,132)"/><path d=" M 434.943 505.926 L 420.276 569.484 L 444.721 545.039 L 434.943 505.926 L 434.943 505.926 Z " fill="rgb(255,101,132)"/><path d=" M 510.307 750.38 L 493.655 736.404 L 494.043 750.38 L 488.871 750.38 L 488.458 735.602 L 465.975 750.38 L 456.563 750.38 L 488.29 729.526 L 487.061 685.737 L 486.143 652.666 L 491.302 652.524 L 492.233 685.737 L 493.461 729.487 L 518.348 750.38 L 510.307 750.38 L 510.307 750.38 Z " fill="rgb(63,61,86)"/><path d=" M 432.076 750.38 L 415.424 736.404 L 415.812 750.38 L 410.654 750.38 L 410.24 735.602 L 387.757 750.38 L 378.345 750.38 L 410.059 729.526 L 408.831 685.737 L 407.913 652.666 L 413.084 652.524 L 414.015 685.737 L 415.23 729.487 L 440.118 750.38 L 432.076 750.38 L 432.076 750.38 Z " fill="rgb(63,61,86)"/><path d=" M 444.721 325.031 C 440.16 325.031 436.137 328.574 433.446 334.016 C 431.075 325.833 426.094 320.142 420.276 320.142 C 419.881 320.181 419.488 320.247 419.102 320.339 C 416.866 311.602 411.668 305.475 405.609 305.475 C 397.508 305.475 390.942 316.419 390.942 329.92 C 390.942 343.421 397.508 354.365 405.609 354.365 C 406.004 354.326 406.397 354.26 406.783 354.168 C 409.019 362.905 414.217 369.033 420.276 369.033 C 424.837 369.033 428.861 365.49 431.551 360.048 C 433.922 368.231 438.904 373.922 444.721 373.922 C 452.822 373.922 459.389 362.977 459.389 349.476 C 459.389 335.976 452.822 325.031 444.721 325.031 Z " fill="rgb(63,61,86)"/><path d=" M 286.25 566.475 L 286.25 566.475 C 273.284 566.475 260.848 561.324 251.679 552.155 C 242.511 542.987 237.36 530.551 237.36 517.584 L 237.36 493.139 C 237.36 480.172 242.511 467.737 251.679 458.568 C 260.848 449.399 273.284 444.248 286.25 444.248 L 286.25 444.248 L 286.25 566.475 Z " fill="rgb(243,156,18)"/><path d=" M 598.303 444.248 L 598.303 444.248 C 611.27 444.248 623.706 449.399 632.874 458.568 C 642.043 467.737 647.194 480.172 647.194 493.139 L 647.194 517.584 C 647.194 530.551 642.043 542.987 632.874 552.155 C 623.706 561.324 611.27 566.475 598.304 566.475 L 598.304 566.475 L 598.304 444.248 L 598.303 444.248 Z " fill="rgb(243,156,18)"/><path d=" M 623.923 496.98 L 616.166 496.98 C 616.166 398.603 536.13 318.567 437.752 318.567 C 339.374 318.567 259.338 398.603 259.338 496.98 L 251.581 496.98 C 251.581 394.325 335.097 310.81 437.752 310.81 C 540.407 310.81 623.923 394.326 623.923 496.98 Z " fill="rgb(243,156,18)"/><path d=" M 131.69 367.997 L 131.69 367.997 L 131.69 367.997 L 131.69 367.997 L 131.69 367.997 Z " fill="rgb(63,61,86)"/></g></svg>